<?xml version="1.0" encoding="UTF-8" standalone="no"?>
<!-- Created with Inkscape (http://www.inkscape.org/) -->

<svg
   width="110.88522mm"
   height="110.42685mm"
   viewBox="0 0 110.88522 110.42685"
   version="1.1"
   id="svg1"
   xmlns="http://www.w3.org/2000/svg"
   xmlns:svg="http://www.w3.org/2000/svg">
  <defs
     id="defs1" />
  <g
     id="layer1"
     transform="translate(-50.000051,-94.999883)">
    <rect
       style="fill:#ffffff;stroke-width:0.264999;stroke-dasharray:none"
       id="rect8"
       width="87.912621"
       height="89.873222"
       x="66.545334"
       y="110.06253" />
    <path
       id="rect1"
       style="fill:#3771c8;stroke-width:0.265;stroke-dasharray:none"
       d="m 50.000049,106.4783 v 76.42334 a 12.098337,12.098337 45 0 0 12.098337,12.09834 h 87.901764 v -89.1802 A 10.819897,10.819897 45 0 0 139.18025,94.999886 H 61.478466 A 11.478417,11.478417 135 0 0 50.000049,106.4783 Z m 61.680471,7.99947 c 5.48623,0 10.50193,0.69054 15.04766,2.07171 4.59798,1.38116 8.56898,3.39341 11.91297,6.03735 l -3.52692,5.03174 c -0.78374,1.10493 -1.85474,1.65726 -3.21324,1.65726 -0.78374,0 -1.72429,-0.29587 -2.82153,-0.8878 -1.045,-0.63139 -2.35113,-1.30249 -3.91862,-2.0128 -1.51525,-0.74977 -3.37003,-1.42035 -5.56452,-2.01228 -2.14224,-0.63139 -4.72873,-0.94723 -7.75922,-0.94723 -2.87374,0 -5.40815,0.31584 -7.60264,0.94723 -2.14224,0.59193 -3.94442,1.44013 -5.407417,2.54507 -1.410744,1.06547 -2.482261,2.32831 -3.213758,3.7884 -0.731496,1.42062 -1.09709,2.95937 -1.09709,4.61677 0,2.1704 0.653326,3.96612 1.95957,5.38675 1.358494,1.42062 3.108602,2.64405 5.250845,3.67006 2.19449,0.98654 4.6763,1.85472 7.44554,2.60449 2.76924,0.74978 5.59086,1.51915 8.4646,2.30839 2.87373,0.78923 5.69536,1.69682 8.4646,2.72283 2.76923,0.98654 5.22475,2.24939 7.36699,3.7884 2.19449,1.49955 3.94511,3.35414 5.25136,5.564 1.35849,2.20986 2.0376,4.91317 2.0376,8.10958 0,3.43318 -0.7317,6.64941 -2.1947,9.64851 -1.46299,2.95964 -3.60499,5.54419 -6.42648,7.75405 -2.76924,2.20986 -6.19159,3.9462 -10.26707,5.20898 -4.07548,1.26278 -8.7256,1.89446 -13.95057,1.89446 -6.32222,0 -12.148013,-0.90759 -17.477489,-2.72283 -5.277226,-1.85471 -9.771097,-4.34098 -13.480831,-7.45846 l 4.153752,-5.09065 c 0.365748,-0.43408 0.810237,-0.76937 1.332735,-1.00614 0.574748,-0.27623 1.227557,-0.41444 1.959054,-0.41444 0.992745,0 2.090044,0.41412 3.291788,1.24282 1.253995,0.78923 2.795266,1.67737 4.624008,2.66392 1.828741,0.94708 4.023339,1.8347 6.583577,2.6634 2.612486,0.78924 5.721326,1.18391 9.326566,1.18391 3.03048,0 5.72165,-0.33529 8.07289,-1.00614 2.35124,-0.67085 4.33648,-1.61786 5.95622,-2.84117 1.672,-1.22332 2.92605,-2.68324 3.76205,-4.3801 0.88824,-1.73632 1.33222,-3.65029 1.33222,-5.74177 0,-2.32824 -0.67911,-4.24221 -2.0376,-5.74176 -1.30625,-1.49955 -3.05636,-2.74295 -5.25085,-3.72949 -2.14224,-1.02601 -4.59827,-1.87422 -7.36751,-2.54507 -2.76923,-0.71031 -5.59086,-1.44027 -8.4646,-2.19004 -2.87373,-0.74978 -5.694841,-1.5985 -8.464078,-2.54558 -2.769238,-0.98655 -5.251051,-2.26884 -7.445541,-3.84732 -2.14224,-1.57847 -3.892865,-3.53186 -5.251359,-5.8601 -1.306244,-2.32825 -1.95957,-5.22864 -1.95957,-8.70128 0,-2.72287 0.679625,-5.3668 2.038118,-7.93182 1.358494,-2.60448 3.317956,-4.89315 5.878195,-6.86624 2.612488,-2.01256 5.799707,-3.61069 9.56169,-4.79454 3.814235,-1.22332 8.177125,-1.83503 13.088605,-1.83503 z" />
    <path
       id="path1"
       style="fill:#80b3ff;stroke-width:0.264583"
       d="m 60.885689,115.28568 v 79.87537 a 10.265692,10.265692 45 0 0 10.265692,10.26569 l 78.214009,0 a 11.519879,11.519879 135 0 0 11.51988,-11.51988 V 116.36477 A 10.938129,10.938129 45 0 0 149.94714,105.42664 H 70.74473 a 9.8590413,9.8590413 135 0 0 -9.859041,9.85904 z m 50.794831,-0.80791 c 5.48623,0 10.50193,0.69054 15.04766,2.07171 4.59798,1.38116 8.56898,3.39341 11.91297,6.03735 l -3.52692,5.03174 c -0.78374,1.10493 -1.85474,1.65726 -3.21324,1.65726 -0.78374,0 -1.72429,-0.29587 -2.82153,-0.8878 -1.045,-0.63139 -2.35113,-1.30249 -3.91862,-2.0128 -1.51525,-0.74977 -3.37003,-1.42035 -5.56452,-2.01228 -2.14224,-0.63139 -4.72873,-0.94723 -7.75922,-0.94723 -2.87374,0 -5.40815,0.31584 -7.60264,0.94723 -2.14224,0.59193 -3.94442,1.44013 -5.407417,2.54507 -1.410744,1.06547 -2.482261,2.32831 -3.213758,3.7884 -0.731496,1.42062 -1.09709,2.95937 -1.09709,4.61677 0,2.1704 0.653326,3.96612 1.95957,5.38675 1.358494,1.42062 3.108602,2.64405 5.250845,3.67006 2.19449,0.98654 4.6763,1.85472 7.44554,2.60449 2.76924,0.74978 5.59086,1.51915 8.4646,2.30839 2.87373,0.78923 5.69536,1.69682 8.4646,2.72283 2.76923,0.98654 5.22475,2.24939 7.36699,3.7884 2.19449,1.49955 3.94511,3.35414 5.25136,5.564 1.35849,2.20986 2.0376,4.91317 2.0376,8.10958 0,3.43318 -0.7317,6.64941 -2.1947,9.64851 -1.46299,2.95964 -3.60499,5.54419 -6.42648,7.75405 -2.76924,2.20986 -6.19159,3.9462 -10.26707,5.20898 -4.07548,1.26278 -8.7256,1.89446 -13.95057,1.89446 -6.32222,0 -12.148013,-0.90759 -17.477489,-2.72283 -5.277226,-1.85471 -9.771097,-4.34098 -13.480831,-7.45846 l 4.153752,-5.09065 c 0.365748,-0.43408 0.810237,-0.76937 1.332735,-1.00614 0.574748,-0.27623 1.227557,-0.41444 1.959054,-0.41444 0.992745,0 2.090044,0.41412 3.291788,1.24282 1.253995,0.78923 2.795266,1.67737 4.624008,2.66392 1.828741,0.94708 4.023339,1.8347 6.583577,2.6634 2.612486,0.78924 5.721326,1.18391 9.326566,1.18391 3.03048,0 5.72165,-0.33529 8.07289,-1.00614 2.35124,-0.67085 4.33648,-1.61786 5.95622,-2.84117 1.672,-1.22332 2.92605,-2.68324 3.76205,-4.3801 0.88824,-1.73632 1.33222,-3.65029 1.33222,-5.74177 0,-2.32824 -0.67911,-4.24221 -2.0376,-5.74176 -1.30625,-1.49955 -3.05636,-2.74295 -5.25085,-3.72949 -2.14224,-1.02601 -4.59827,-1.87422 -7.36751,-2.54507 -2.76923,-0.71031 -5.59086,-1.44027 -8.4646,-2.19004 -2.87373,-0.74978 -5.694841,-1.5985 -8.464078,-2.54558 -2.769238,-0.98655 -5.251051,-2.26884 -7.445541,-3.84732 -2.14224,-1.57847 -3.892865,-3.53186 -5.251359,-5.8601 -1.306244,-2.32825 -1.95957,-5.22864 -1.95957,-8.70128 0,-2.72287 0.679625,-5.3668 2.038118,-7.93182 1.358494,-2.60448 3.317956,-4.89315 5.878195,-6.86624 2.612488,-2.01256 5.799707,-3.61069 9.56169,-4.79454 3.814235,-1.22332 8.177125,-1.83503 13.088605,-1.83503 z" />
  </g>
</svg>
